<svg xmlns="http://www.w3.org/2000/svg" viewBox="0 0 1600 1000" width="1600" height="1000">
<defs>
  <linearGradient id="sky" x1="0" x2="0" y1="0" y2="1"><stop offset="0%" stop-color="#f7e3c8"/><stop offset="100%" stop-color="#f4c89a"/></linearGradient>
  <linearGradient id="hill" x1="0" x2="1"><stop offset="0%" stop-color="#5e7d4b"/><stop offset="100%" stop-color="#35553f"/></linearGradient>
</defs>
<rect width="1600" height="1000" fill="url(#sky)"/>
<rect y="620" width="1600" height="380" fill="#294335"/>
<path d="M0 530 C220 450, 420 470, 640 540 S1070 620, 1600 500 L1600 1000 L0 1000 Z" fill="#6f8a52"/>
<path d="M0 620 C280 540, 510 570, 770 620 S1180 700, 1600 610 L1600 1000 L0 1000 Z" fill="url(#hill)"/>
<g stroke="#d8c1a0" stroke-width="8" opacity="0.9">
  <path d="M120 700 C280 620, 470 640, 690 720" fill="none"/>
  <path d="M150 770 C330 690, 520 705, 760 790" fill="none"/>
  <path d="M90 845 C310 770, 560 790, 840 880" fill="none"/>
  <path d="M600 680 C820 600, 1040 605, 1420 740" fill="none"/>
  <path d="M680 760 C930 685, 1170 700, 1510 820" fill="none"/>
  <path d="M760 850 C980 790, 1200 800, 1540 920" fill="none"/>
</g>
<g transform="translate(1050,180)">
  <ellipse cx="170" cy="410" rx="130" ry="40" fill="#000" opacity="0.12"/>
  <path d="M160 95 C162 185, 105 238, 105 320 C105 390, 130 445, 168 474 C206 445, 231 390, 231 320 C231 238, 174 185, 176 95 Z" fill="#ffffff" stroke="#f8f2eb" stroke-width="14"/>
  <path d="M126 260 C126 360, 168 405, 168 405 C168 405, 210 360, 210 260 Z" fill="#7d2944"/>
  <rect x="157" y="470" width="22" height="135" rx="11" fill="#ffffff"/>
  <rect x="95" y="600" width="145" height="26" rx="12" fill="#ffffff"/>
</g>
</svg>